<svg xmlns="http://www.w3.org/2000/svg" width="1186" height="591" fill="none"><path stroke="#658FBB" stroke-linecap="round" stroke-linejoin="round" stroke-miterlimit="10" stroke-width="20.039" d="M568.309 393.246c-50.102 54.269-130.129 89.41-220.306 89.431m-1.543.466c-92.619-.219-176.473-37.832-237.185-98.573-57.698-57.684-94.541-136.235-98.262-223.349-.343-8.007 6.244-14.637 14.25-14.297 37.35 1.591 73.122 9.273 106.343 22.064 43.223 16.653 82.153 41.961 114.635 73.813m321.26-75.377c2.939-44.849-2.52-90.908-17.371-135.969-2.502-7.593-10.975-11.442-18.347-8.346-44.945 18.877-84.172 45.921-116.586 78.733m-133.592-5.185c-28.904-31.856-63.986-59.005-104.484-79.428-7.128-3.595-15.833-.32-18.853 7.07-18.155 44.435-26.785 90.551-26.785 136.02 0 2.895.027 5.775.123 8.67m13.635 246.801c-44.542 6.369-87.634 25.353-123.492 56.975-6.266 5.526-6.28 15.216-.013 20.742 44.903 39.605 101.164 59.402 157.414 59.402 60.905 0 121.81-23.196 168.312-69.615l.151-.151-.151-.151m.001-.001-.151.15.151.151c46.501 46.42 107.406 69.616 168.311 69.616 56.25 0 112.513-19.798 157.415-59.403 6.265-5.526 6.252-15.215-.014-20.741-35.847-31.612-78.937-50.608-123.478-56.975M422.153 533.814C408.6 561.194 380.384 580 347.764 580c-32.702 0-60.973-18.902-74.499-46.392m69.444-54.878 4.408 4.407 4.408-4.407c128.805-128.805 128.805-337.642 0-466.447l-.212-.211a5.935 5.935 0 0 0-8.393 0l-.211.21c-128.806 128.806-128.806 337.643 0 466.448Z"/><path fill="#2F3547" d="M479 308.383c0-8.296 1.68-15.489 5.041-21.58 3.465-6.09 8.033-11.288 13.704-15.593 5.67-4.306 12.129-7.771 19.374-10.396a134.764 134.764 0 0 1 22.526-6.301c7.771-1.575 15.436-2.625 22.997-3.15 7.561-.63 14.492-.998 20.793-1.103v-8.033c0-6.931-.893-12.916-2.678-17.957-1.785-5.04-4.306-9.188-7.561-12.443-3.255-3.361-7.193-5.828-11.814-7.404-4.515-1.68-9.503-2.52-14.964-2.52-3.78 0-7.508.315-11.184.945-3.675.63-7.508 1.68-11.499 3.151-3.885 1.47-8.033 3.465-12.444 5.985-4.305 2.52-8.978 5.723-14.019 9.608l-1.575-.945 10.711-22.209c3.466-1.575 6.879-2.835 10.239-3.78a85.457 85.457 0 0 1 10.239-2.521 87.745 87.745 0 0 1 10.553-1.26c3.676-.315 7.509-.472 11.499-.472 11.027 0 20.425 1.365 28.196 4.095 7.876 2.625 14.282 6.301 19.217 11.026 5.041 4.62 8.716 10.081 11.027 16.382 2.31 6.195 3.465 12.863 3.465 20.004v51.35c0 8.925.105 16.749.315 23.469.315 6.616.63 12.339.945 17.169.42 4.831.893 8.874 1.418 12.129.63 3.255 1.26 5.985 1.89 8.191v.63h-34.812v-.63c.526-1.681.893-3.571 1.103-5.671.315-2.1.578-4.62.788-7.561-2.206 1.891-4.831 3.833-7.876 5.828-2.941 1.996-6.353 3.833-10.239 5.513-3.78 1.576-8.033 2.836-12.759 3.781-4.62 1.05-9.714 1.575-15.279 1.575-18.272 0-32.397-4.253-42.373-12.759-9.976-8.61-14.964-20.792-14.964-36.543Zm104.435-45.837c-9.556.105-18.745.683-27.566 1.733-8.821.945-16.644 2.993-23.47 6.143-6.721 3.15-12.129 7.666-16.225 13.546-3.99 5.776-5.985 13.494-5.985 23.155 0 12.391 3.098 21.842 9.293 28.352 6.196 6.511 14.755 9.766 25.676 9.766 5.04 0 9.608-.682 13.704-2.047 4.2-1.47 7.876-3.256 11.026-5.356 3.256-2.205 5.986-4.568 8.191-7.088 2.205-2.625 3.886-5.145 5.041-7.561.21-3.99.315-8.4.315-13.231V262.546ZM715.593 345.556c3.15 0 6.248-.577 9.294-1.732a38.717 38.717 0 0 0 8.978-4.726 63.735 63.735 0 0 0 8.349-6.773 91.757 91.757 0 0 0 7.56-8.191l1.576.788-10.239 25.36-4.726 2.363c-1.785.84-3.99 1.627-6.615 2.362-2.521.84-5.514 1.523-8.979 2.048-3.465.63-7.561.945-12.286.945-14.072 0-25.046-3.78-32.922-11.341-7.771-7.666-11.656-19.584-11.656-35.756V205.841l-26.463.945v-13.861c3.255.21 7.141.367 11.656.472 4.516.105 9.451.158 14.807.158-.105-7.456-.315-14.019-.63-19.689-.21-5.776-.525-10.764-.945-14.964-.315-4.306-.735-7.928-1.261-10.869-.525-2.94-1.05-5.408-1.575-7.403V140h36.387v.63c-.63 1.995-1.208 4.463-1.733 7.403-.525 2.941-.997 6.511-1.417 10.711-.315 4.201-.63 9.189-.945 14.964-.21 5.671-.368 12.286-.473 19.847 6.616-.105 13.074-.21 19.375-.315 6.406-.21 12.181-.42 17.327-.63 5.25-.315 9.661-.578 13.231-.788 3.676-.315 6.091-.577 7.246-.787l-2.835 16.066c-5.356-.105-10.974-.262-16.855-.472-5.04-.21-10.816-.368-17.327-.473-6.51-.105-13.231-.21-20.162-.315v108.37c0 6.511.683 11.814 2.048 15.909 1.47 3.99 3.308 7.141 5.513 9.451 2.31 2.31 4.883 3.885 7.718 4.725 2.941.84 5.934 1.26 8.979 1.26ZM839.403 345.556c3.15 0 6.248-.577 9.293-1.732a38.743 38.743 0 0 0 8.979-4.726 63.66 63.66 0 0 0 8.348-6.773 91.77 91.77 0 0 0 7.561-8.191l1.575.788-10.238 25.36-4.726 2.363c-1.785.84-3.991 1.627-6.616 2.362-2.52.84-5.513 1.523-8.978 2.048-3.466.63-7.561.945-12.287.945-14.071 0-25.045-3.78-32.921-11.341-7.771-7.666-11.657-19.584-11.657-35.756V205.841l-26.463.945v-13.861c3.256.21 7.141.367 11.657.472 4.515.105 9.451.158 14.806.158-.105-7.456-.315-14.019-.63-19.689-.21-5.776-.525-10.764-.945-14.964-.315-4.306-.735-7.928-1.26-10.869-.525-2.94-1.05-5.408-1.575-7.403V140h36.387v.63c-.63 1.995-1.208 4.463-1.733 7.403-.525 2.941-.998 6.511-1.418 10.711-.315 4.201-.63 9.189-.945 14.964-.21 5.671-.367 12.286-.472 19.847 6.615-.105 13.074-.21 19.374-.315 6.406-.21 12.182-.42 17.327-.63 5.251-.315 9.662-.578 13.232-.788 3.675-.315 6.091-.577 7.246-.787l-2.835 16.066c-5.356-.105-10.974-.262-16.855-.472-5.041-.21-10.816-.368-17.327-.473-6.511-.105-13.232-.21-20.162-.315v108.37c0 6.511.682 11.814 2.047 15.909 1.471 3.99 3.308 7.141 5.514 9.451 2.31 2.31 4.883 3.885 7.718 4.725 2.94.84 5.933 1.26 8.979 1.26ZM893.589 308.383c0-8.296 1.68-15.489 5.04-21.58 3.466-6.09 8.034-11.288 13.705-15.593 5.67-4.306 12.129-7.771 19.374-10.396a134.764 134.764 0 0 1 22.526-6.301c7.77-1.575 15.436-2.625 22.997-3.15 7.561-.63 14.492-.998 20.793-1.103v-8.033c0-6.931-.893-12.916-2.678-17.957-1.785-5.04-4.306-9.188-7.561-12.443-3.255-3.361-7.193-5.828-11.814-7.404-4.515-1.68-9.504-2.52-14.964-2.52-3.781 0-7.509.315-11.184.945-3.675.63-7.508 1.68-11.499 3.151-3.885 1.47-8.033 3.465-12.444 5.985-4.305 2.52-8.978 5.723-14.019 9.608l-1.575-.945 10.711-22.209c3.466-1.575 6.878-2.835 10.239-3.78a85.457 85.457 0 0 1 10.239-2.521 87.745 87.745 0 0 1 10.553-1.26c3.676-.315 7.509-.472 11.499-.472 11.026 0 20.425 1.365 28.196 4.095 7.876 2.625 14.277 6.301 19.217 11.026 5.04 4.62 8.72 10.081 11.03 16.382 2.31 6.195 3.46 12.863 3.46 20.004v51.35c0 8.925.11 16.749.32 23.469.31 6.616.63 12.339.94 17.169.42 4.831.89 8.874 1.42 12.129.63 3.255 1.26 5.985 1.89 8.191v.63h-34.812v-.63c.525-1.681.893-3.571 1.103-5.671.315-2.1.578-4.62.788-7.561-2.206 1.891-4.831 3.833-7.876 5.828-2.941 1.996-6.354 3.833-10.239 5.513-3.78 1.576-8.033 2.836-12.759 3.781-4.621 1.05-9.714 1.575-15.279 1.575-18.272 0-32.397-4.253-42.373-12.759-9.976-8.61-14.964-20.792-14.964-36.543Zm104.435-45.837c-9.556.105-18.745.683-27.566 1.733-8.821.945-16.644 2.993-23.47 6.143-6.721 3.15-12.129 7.666-16.225 13.546-3.99 5.776-5.985 13.494-5.985 23.155 0 12.391 3.097 21.842 9.293 28.352 6.196 6.511 14.754 9.766 25.676 9.766 5.04 0 9.608-.682 13.704-2.047 4.2-1.47 7.876-3.256 11.026-5.356 3.256-2.205 5.986-4.568 8.191-7.088 2.205-2.625 3.886-5.145 5.041-7.561.21-3.99.315-8.4.315-13.231V262.546Z"/><path fill="#2F3547" fill-opacity=".33" d="m802.754 508.781-34.375-75.195a95.902 95.902 0 0 0-4.004-8.203c-1.432-2.669-2.799-5.046-4.102-7.129-1.237-2.083-2.343-3.809-3.32-5.176-.976-1.432-1.627-2.344-1.953-2.734v-.391h25.586v.391c-.13.325-.228.814-.293 1.465a17.871 17.871 0 0 0-.098 1.757c0 2.019.293 4.265.879 6.739.651 2.409 1.823 5.436 3.516 9.082l26.953 58.593 24.609-57.812a143.255 143.255 0 0 0 3.125-7.91c1.107-2.865 1.661-5.762 1.661-8.692 0-.846-.066-1.53-.196-2.05-.13-.586-.26-.977-.39-1.172v-.391h17.578v.391c-1.172 1.237-2.67 3.45-4.492 6.64-1.758 3.125-3.646 7.064-5.665 11.817l-46.582 110.937a219.703 219.703 0 0 0-3.222 7.91c-1.042 2.865-1.563 5.762-1.563 8.692 0 .846.065 1.53.196 2.051.13.586.26.976.39 1.171v.391H778.73v-.391c1.237-1.236 2.735-3.417 4.493-6.542 1.823-3.06 3.743-6.934 5.761-11.622l13.77-32.617ZM863.398 459.758c0-7.357 1.368-14.16 4.102-20.41 2.734-6.315 6.478-11.784 11.23-16.407 4.818-4.622 10.482-8.235 16.993-10.839 6.51-2.605 13.509-3.907 20.996-3.907 7.357 0 14.258 1.237 20.703 3.711 6.51 2.409 12.174 5.86 16.992 10.352 4.818 4.492 8.594 9.961 11.328 16.406 2.8 6.445 4.199 13.672 4.199 21.68 0 6.705-1.171 13.151-3.515 19.336-2.344 6.185-5.794 11.653-10.352 16.406-4.557 4.753-10.156 8.561-16.797 11.426-6.575 2.799-14.16 4.199-22.754 4.199-7.291 0-14.16-1.204-20.605-3.613s-12.077-5.86-16.895-10.352c-4.817-4.492-8.626-9.928-11.425-16.308-2.8-6.446-4.2-13.672-4.2-21.68Zm55.372 44.824c4.622 0 8.854-.911 12.695-2.734 3.906-1.823 7.259-4.46 10.058-7.91 2.8-3.451 4.981-7.65 6.543-12.598 1.563-4.948 2.344-10.547 2.344-16.797 0-7.031-.749-13.542-2.246-19.531-1.497-6.055-3.743-11.263-6.738-15.625-2.93-4.427-6.641-7.878-11.133-10.352-4.492-2.474-9.733-3.711-15.723-3.711-4.622 0-8.854.912-12.695 2.735-3.841 1.757-7.194 4.329-10.059 7.714-2.799 3.386-4.98 7.553-6.543 12.5-1.562 4.883-2.343 10.45-2.343 16.7 0 7.031.748 13.574 2.246 19.629 1.562 6.054 3.841 11.328 6.836 15.82 2.995 4.427 6.705 7.91 11.133 10.449 4.492 2.474 9.7 3.711 15.625 3.711ZM1029.71 554.582c5.27 0 9.73-.586 13.38-1.758 3.64-1.107 6.64-2.669 8.98-4.687a19.568 19.568 0 0 0 5.47-7.325c1.3-2.799 2.25-5.891 2.83-9.277.65-3.385 1.01-6.999 1.08-10.84.13-3.841.19-7.812.19-11.914v-3.222c-3.19 1.692-7.03 3.157-11.52 4.394-4.5 1.172-9.57 1.758-15.24 1.758-7.74 0-14.78-1.204-21.09-3.613-6.32-2.409-11.72-5.86-16.212-10.352-4.427-4.492-7.845-9.928-10.254-16.308-2.409-6.446-3.613-13.672-3.613-21.68 0-7.357 1.172-14.193 3.516-20.508 2.408-6.315 5.761-11.784 10.058-16.406 4.365-4.623 9.535-8.236 15.525-10.84 6.06-2.669 12.73-4.004 20.02-4.004 3.13 0 5.99.26 8.6.781 2.6.521 5.01 1.237 7.22 2.149a37.88 37.88 0 0 1 6.35 3.027 67.494 67.494 0 0 1 5.86 3.613l-.98-7.226v-.391h21.58v.391c-.39 1.367-.78 3.06-1.17 5.078-.32 2.018-.62 4.525-.88 7.519-.19 2.995-.39 6.576-.58 10.743-.13 4.101-.2 8.919-.2 14.453v66.406c0 5.99-.81 11.816-2.44 17.48-1.56 5.73-4.26 10.808-8.1 15.235-3.78 4.427-8.79 7.975-15.04 10.644-6.25 2.67-14.03 4.004-23.34 4.004-3.26 0-6.55-.325-9.87-.976a80.993 80.993 0 0 1-9.47-2.246c-2.99-.847-5.7-1.791-8.1-2.832-2.413-1.042-4.334-1.954-5.766-2.735l-3.027-18.75 1.562-.39a28.767 28.767 0 0 0 6.351 8.886c2.73 2.604 5.69 4.753 8.88 6.446 3.19 1.757 6.48 3.059 9.87 3.906 3.45.911 6.64 1.367 9.57 1.367Zm9.57-50c4.68 0 8.92-.781 12.69-2.344 3.84-1.562 7.07-3.385 9.67-5.468v-48.633c0-3.646-.03-6.934-.1-9.864-.06-2.994-.09-5.696-.09-8.105-1.57-2.409-3.39-4.525-5.47-6.348-2.02-1.888-4.2-3.45-6.55-4.687-2.28-1.302-4.62-2.279-7.03-2.93-2.41-.716-4.78-1.074-7.13-1.074-4.94 0-9.4.911-13.38 2.734-3.97 1.823-7.35 4.46-10.15 7.91-2.74 3.386-4.85 7.553-6.35 12.5-1.43 4.883-2.15 10.45-2.15 16.7 0 7.031.78 13.574 2.35 19.629 1.56 6.054 3.84 11.328 6.83 15.82 3.06 4.427 6.84 7.91 11.33 10.449 4.49 2.474 9.67 3.711 15.53 3.711ZM1100.9 481.145c0-5.144 1.04-9.603 3.12-13.379 2.15-3.776 4.98-6.999 8.5-9.668 3.52-2.67 7.52-4.818 12.01-6.446a83.65 83.65 0 0 1 13.97-3.906 110.03 110.03 0 0 1 14.25-1.953c4.69-.391 8.99-.619 12.89-.684v-4.98c0-4.297-.55-8.008-1.66-11.133-1.1-3.125-2.66-5.697-4.68-7.715-2.02-2.083-4.46-3.613-7.33-4.59-2.8-1.041-5.89-1.562-9.27-1.562-2.35 0-4.66.195-6.94.586-2.28.39-4.65 1.042-7.13 1.953-2.41.911-4.98 2.148-7.71 3.711-2.67 1.562-5.57 3.548-8.69 5.957l-.98-.586 6.64-13.77a44.293 44.293 0 0 1 6.35-2.343c2.08-.651 4.2-1.172 6.35-1.563 2.14-.39 4.33-.651 6.54-.781 2.28-.195 4.65-.293 7.13-.293 6.83 0 12.66.846 17.48 2.539 4.88 1.628 8.85 3.906 11.91 6.836 3.13 2.865 5.41 6.25 6.84 10.156 1.43 3.841 2.15 7.976 2.15 12.403v31.836c0 5.533.06 10.384.19 14.55.2 4.102.39 7.65.59 10.645.26 2.995.55 5.501.88 7.519.39 2.019.78 3.711 1.17 5.078v.391h-21.58v-.391c.32-1.041.55-2.213.68-3.515.2-1.302.36-2.865.49-4.688-1.37 1.172-3 2.377-4.88 3.614-1.83 1.237-3.94 2.376-6.35 3.418-2.35.976-4.98 1.757-7.91 2.343-2.87.651-6.02.977-9.47.977-11.33 0-20.09-2.637-26.27-7.91-6.19-5.339-9.28-12.891-9.28-22.656Zm64.74-28.418c-5.92.065-11.62.423-17.09 1.074-5.46.586-10.31 1.855-14.55 3.808-4.16 1.953-7.52 4.753-10.05 8.399-2.48 3.581-3.72 8.366-3.72 14.355 0 7.683 1.92 13.542 5.77 17.578 3.84 4.037 9.14 6.055 15.91 6.055 3.13 0 5.96-.423 8.5-1.269 2.6-.912 4.88-2.019 6.84-3.321 2.01-1.367 3.71-2.832 5.07-4.394 1.37-1.628 2.41-3.19 3.13-4.688.13-2.474.19-5.208.19-8.203v-29.394Z"/></svg>